# xmcd
#
# Track frame offsets:
#	150
#	14042
#	25252
#	36836
#	50836
#	63860
#	77265
#	92049
#	104971
#	117518
#	128927
#	144299
#	156607
#	169741
#	184117
#	198951
#	213728
#	225910
#	239115
#	251907
#	264616
#	278310
#	291879
#
# Disc length: 4065 seconds
#
# Revision: 0
# Processed by: cddbd v1.5.2PL0 Copyright (c) Steve Scherf et al.
# Submitted via: EZCDAudioConverter 2.0.5.1
#
DISCID=5b0fdf17
DTITLE=B.B. King - The Indispensable B.B. King 1949-1962 - CD 2
DYEAR=2013
DGENRE=Blues
TTITLE0=Blind Love
TTITLE1=Everything I Do Is Wrong
TTITLE2=You Didn't Want Me
TTITLE3=You Know I Love You
TTITLE4=Boogie Woogie Woman
TTITLE5=Woke Up This Morning
TTITLE6=Don't Have To Cry (Past Day)
TTITLE7=Please Love Me
TTITLE8=Highway Bound
TTITLE9=Bye Bye Baby
TTITLE10=Can't We Talk It Over (Come Back Baby)
TTITLE11=Please Hurry Home
TTITLE12=Praying To The Lord
TTITLE13=Why Did You Leave Me
TTITLE14=Please Help Me
TTITLE15=Please Remember Me
TTITLE16=The Woman I Love
TTITLE17=When My Heart Beats Like A Hammer
TTITLE18=Every Day I Have The Blues
TTITLE19=Ten Long Years
TTITLE20=Boogie Rock
TTITLE21=Crying Won't Help You
TTITLE22=Bad Luck
EXTD=
EXTT0=
EXTT1=
EXTT2=
EXTT3=
EXTT4=
EXTT5=
EXTT6=
EXTT7=
EXTT8=
EXTT9=
EXTT10=
EXTT11=
EXTT12=
EXTT13=
EXTT14=
EXTT15=
EXTT16=
EXTT17=
EXTT18=
EXTT19=
EXTT20=
EXTT21=
EXTT22=
PLAYORDER=
